<svg width="129" height="137" viewBox="0 0 129 137" fill="none" xmlns="http://www.w3.org/2000/svg">
<g style="mix-blend-mode:soft-light" opacity="0.2">
<path fill-rule="evenodd" clip-rule="evenodd" d="M146.725 79.5246H108.654C105.786 96.3977 91.0768 109.246 73.3625 109.246C55.6482 109.246 40.9391 96.3977 38.0711 79.5246H0C3.06901 117.299 34.7423 147 73.3626 147C111.983 147 143.656 117.299 146.725 79.5246ZM146.655 66.6721H108.508C105.316 50.1961 90.7946 37.7541 73.3625 37.7541C55.9304 37.7541 41.4085 50.1961 38.2172 66.6721H0.0696806C3.51907 29.2803 35.0165 0 73.3626 0C111.709 0 143.206 29.2803 146.655 66.6721ZM76.1601 73.5C76.1601 74.9715 74.9525 76.2459 73.3625 76.2459C71.7724 76.2459 70.5649 74.9715 70.5649 73.5C70.5649 72.0284 71.7724 70.7541 73.3625 70.7541C74.9525 70.7541 76.1601 72.0284 76.1601 73.5Z" fill="white"/>
</g>
</svg>
